<svg xmlns="http://www.w3.org/2000/svg" viewBox="0 0 1200 800" width="1200" height="800">
  <rect x="0" y="0" width="1200" height="266.7" fill="#FF9933"/>
  <rect x="0" y="266.7" width="1200" height="266.7" fill="#FFFFFF"/>
  <rect x="0" y="533.3" width="1200" height="266.7" fill="#138808"/>
  <circle cx="600" cy="400" r="100" fill="none" stroke="#000080" stroke-width="11"/>
  <line x1="616.0" y1="400.0" x2="696.0" y2="400.0" stroke="#000080" stroke-width="7"/>
  <line x1="615.5" y1="404.1" x2="692.7" y2="424.8" stroke="#000080" stroke-width="7"/>
  <line x1="613.9" y1="408.0" x2="683.1" y2="448.0" stroke="#000080" stroke-width="7"/>
  <line x1="611.3" y1="411.3" x2="667.9" y2="467.9" stroke="#000080" stroke-width="7"/>
  <line x1="608.0" y1="413.9" x2="648.0" y2="483.1" stroke="#000080" stroke-width="7"/>
  <line x1="604.1" y1="415.5" x2="624.8" y2="492.7" stroke="#000080" stroke-width="7"/>
  <line x1="600.0" y1="416.0" x2="600.0" y2="496.0" stroke="#000080" stroke-width="7"/>
  <line x1="595.9" y1="415.5" x2="575.2" y2="492.7" stroke="#000080" stroke-width="7"/>
  <line x1="592.0" y1="413.9" x2="552.0" y2="483.1" stroke="#000080" stroke-width="7"/>
  <line x1="588.7" y1="411.3" x2="532.1" y2="467.9" stroke="#000080" stroke-width="7"/>
  <line x1="586.1" y1="408.0" x2="516.9" y2="448.0" stroke="#000080" stroke-width="7"/>
  <line x1="584.5" y1="404.1" x2="507.3" y2="424.8" stroke="#000080" stroke-width="7"/>
  <line x1="584.0" y1="400.0" x2="504.0" y2="400.0" stroke="#000080" stroke-width="7"/>
  <line x1="584.5" y1="395.9" x2="507.3" y2="375.2" stroke="#000080" stroke-width="7"/>
  <line x1="586.1" y1="392.0" x2="516.9" y2="352.0" stroke="#000080" stroke-width="7"/>
  <line x1="588.7" y1="388.7" x2="532.1" y2="332.1" stroke="#000080" stroke-width="7"/>
  <line x1="592.0" y1="386.1" x2="552.0" y2="316.9" stroke="#000080" stroke-width="7"/>
  <line x1="595.9" y1="384.5" x2="575.2" y2="307.3" stroke="#000080" stroke-width="7"/>
  <line x1="600.0" y1="384.0" x2="600.0" y2="304.0" stroke="#000080" stroke-width="7"/>
  <line x1="604.1" y1="384.5" x2="624.8" y2="307.3" stroke="#000080" stroke-width="7"/>
  <line x1="608.0" y1="386.1" x2="648.0" y2="316.9" stroke="#000080" stroke-width="7"/>
  <line x1="611.3" y1="388.7" x2="667.9" y2="332.1" stroke="#000080" stroke-width="7"/>
  <line x1="613.9" y1="392.0" x2="683.1" y2="352.0" stroke="#000080" stroke-width="7"/>
  <line x1="615.5" y1="395.9" x2="692.7" y2="375.2" stroke="#000080" stroke-width="7"/>
  <circle cx="600" cy="400" r="17" fill="#000080"/>
</svg>
